<?xml version="1.0" encoding="utf-8"?>
<!-- Generator: Adobe Illustrator 19.1.0, SVG Export Plug-In . SVG Version: 6.00 Build 0)  -->
<svg version="1.1" id="Layer_1" xmlns="http://www.w3.org/2000/svg" xmlns:xlink="http://www.w3.org/1999/xlink" x="0px" y="0px"
	 viewBox="0 0 220 48" style="enable-background:new 0 0 220 48;" xml:space="preserve">
<style type="text/css">
	.st0{display:none;}
	.st1{fill:#FFFFFF;}
</style>
<rect y="-1.1" class="st0" width="220" height="50"/>
<g>
	<g>
		<g>
			<path class="st1" d="M27.5,21.7c0,2.2-0.7,4.1-2.1,5.7c-1.4,1.6-3.2,2.3-5.4,2.3H8.7c-2.3,0-4.1-0.8-5.6-2.3
				C1.7,25.8,1,23.9,1,21.7v-7.7c0-2.3,0.7-4.1,2.2-5.6c1.4-1.5,3.3-2.2,5.6-2.2h11c2.3,0,4.1,0.7,5.6,2.2c1.5,1.5,2.2,3.3,2.2,5.6
				V21.7z M24.2,21.4v-7c0-1.3-0.4-2.5-1.2-3.6c-0.8-1-1.9-1.5-3.2-1.5h-11c-1.3,0-2.4,0.5-3.2,1.5c-0.8,1-1.2,2.2-1.2,3.6v7
				c0,1.3,0.4,2.5,1.2,3.5c0.8,1,1.9,1.5,3.2,1.5h11c1.3,0,2.4-0.5,3.2-1.5C23.8,23.9,24.2,22.7,24.2,21.4z"/>
			<path class="st1" d="M58.3,29.7h-3.2V14.3c0-1.3-0.5-2.4-1.4-3.3c-0.9-0.9-2-1.4-3.3-1.4H39.8c-1.3,0-2.4,0.5-3.3,1.4
				c-0.9,0.9-1.4,2-1.4,3.3v15.4h-3.2V14.3c0-2.3,0.8-4.1,2.3-5.6c1.5-1.5,3.4-2.3,5.6-2.3h10.7c2.3,0,4.1,0.8,5.6,2.4
				c1.5,1.6,2.3,3.6,2.3,5.8V29.7z"/>
			<path class="st1" d="M89.6,14.5c0,2.3-0.7,4.1-2.2,5.6c-1.5,1.5-3.4,2.3-5.7,2.3h-7.8l0-3.2h7.8c1.5,0,2.7-0.5,3.5-1.5
				c0.8-1,1.1-2.2,1.1-3.7c0-1.4-0.4-2.6-1.3-3.5c-0.9-0.9-2-1.4-3.4-1.3L70.4,9.2c-1.3,0-2.4,0.5-3.2,1.4C66.4,11.6,66,12.7,66,14
				v7.3c0,1.3,0.4,2.5,1.2,3.5c0.8,1,1.9,1.5,3.2,1.5h16.7v3.2H70.6c-2.3,0-4.2-0.8-5.6-2.3c-1.4-1.5-2.1-3.5-2.1-5.7v-7.7
				c0-2.3,0.7-4.2,2.1-5.7C66.3,6.7,68.1,6,70.5,6h11.5c2.4,0,4.3,0.8,5.7,2.5C88.9,10,89.6,12,89.6,14.5z"/>
		</g>
		<g>
			<path class="st1" d="M119.6,16.2c0,2.3-0.7,4.2-2.1,5.8c-1.4,1.5-3.3,2.3-5.6,2.3c-1.5,0-3.3,0-5.4,0l-5.5-0.1L101,21h10.9
				c1.3,0,2.4-0.5,3.2-1.5c0.8-1,1.2-2.2,1.2-3.5v-1.5c0-1.4-0.4-2.5-1.2-3.4c-0.8-0.9-1.9-1.4-3.2-1.4h-10.7
				c-1.3,0-2.4,0.5-3.3,1.4c-0.9,0.9-1.4,2-1.4,3.3v15.6h-3.2V14.6c0-2.3,0.8-4.2,2.3-5.8c1.5-1.6,3.4-2.4,5.6-2.4h10.7
				c2.3,0,4.1,0.7,5.5,2.1c1.4,1.4,2.1,3.2,2.1,5.5V16.2z"/>
			<path class="st1" d="M149,21.7c0,2.2-0.7,4.1-2.1,5.7c-1.4,1.6-3.2,2.3-5.4,2.3h-11.2c-2.3,0-4.1-0.8-5.6-2.3
				c-1.5-1.6-2.2-3.4-2.2-5.7v-7.7c0-2.3,0.7-4.1,2.2-5.6c1.4-1.5,3.3-2.2,5.6-2.2h11c2.2,0,4.1,0.7,5.6,2.2
				c1.5,1.5,2.2,3.3,2.2,5.6V21.7z M145.8,21.4v-7c0-1.3-0.4-2.5-1.2-3.6c-0.8-1-1.9-1.5-3.2-1.5h-11c-1.3,0-2.4,0.5-3.2,1.5
				c-0.8,1-1.2,2.2-1.2,3.6v7c0,1.3,0.4,2.5,1.2,3.5c0.8,1,1.9,1.5,3.2,1.5h11c1.3,0,2.4-0.5,3.2-1.5
				C145.4,23.9,145.8,22.7,145.8,21.4z"/>
			<path class="st1" d="M157.6,29.7h-3.2V6h3.2V29.7z"/>
			<path class="st1" d="M189.3,29.7h-3.2V14.3c0-1.3-0.5-2.4-1.4-3.3c-0.9-0.9-2-1.4-3.3-1.4h-10.7c-1.3,0-2.4,0.5-3.3,1.4
				c-0.9,0.9-1.4,2-1.4,3.3v15.4h-3.2V14.3c0-2.3,0.8-4.1,2.3-5.6c1.5-1.5,3.4-2.3,5.6-2.3h10.7c2.2,0,4.1,0.8,5.6,2.4
				c1.5,1.6,2.3,3.6,2.3,5.8V29.7z"/>
			<path class="st1" d="M218.1,9.6h-12v20.1h-3.2V9.6h-12V6.4h27.3V9.6z"/>
		</g>
	</g>
	<g>
		<path class="st1" d="M9.9,37H9c0,0,0-0.1,0-0.2c0-0.1,0-0.1,0-0.2c0-0.1-0.1-0.3-0.1-0.4C8.8,36.1,8.7,36,8.6,36
			c-0.1-0.1-0.3-0.1-0.6-0.2c-0.3,0-0.5-0.1-0.8-0.1c-0.2,0-0.4,0-0.5,0c-0.2,0-0.3,0-0.5,0H5.9c-0.2,0-0.4,0-0.6,0
			c-0.2,0-0.5,0-0.7,0c-0.3,0-0.5,0-0.8,0.1c-0.2,0-0.5,0.1-0.6,0.2c-0.2,0.1-0.3,0.2-0.4,0.4c-0.1,0.2-0.1,0.3-0.1,0.5
			c0,0,0,0,0,0.1c0,0,0,0,0,0.1c0,0.5,0.1,0.8,0.4,0.9c0.3,0.1,0.6,0.2,1,0.2c0.1,0,0.1,0,0.2,0c0.1,0,0.1,0,0.2,0
			c0.1,0,0.1,0,0.2,0c0.1,0,0.1,0,0.2,0c0.1,0,0.3,0,0.4,0c0.1,0,0.3,0,0.4,0c0.1,0,0.3,0,0.4,0c0.1,0,0.3,0,0.4,0
			c0.1,0,0.3,0,0.4,0c0.1,0,0.3,0,0.4,0c0.1,0,0.2,0,0.4,0c0.1,0,0.3,0,0.4,0c0.7,0.1,1.2,0.2,1.5,0.5c0.3,0.3,0.4,0.8,0.4,1.5
			c0,0.4-0.1,0.8-0.2,1.1c-0.1,0.3-0.4,0.6-0.8,0.7c-0.2,0.1-0.5,0.2-0.8,0.2c-0.3,0-0.6,0.1-0.9,0.1c-0.2,0-0.3,0-0.5,0
			c-0.2,0-0.3,0-0.5,0H5.9c-0.2,0-0.4,0-0.6,0c-0.2,0-0.4,0-0.6,0c-0.2,0-0.4,0-0.6,0c-0.2,0-0.4,0-0.6,0c-0.8-0.1-1.3-0.3-1.5-0.6
			c-0.2-0.3-0.3-0.8-0.3-1.6l0.9,0v0.2c0,0,0,0,0,0c0,0,0,0,0,0c0,0.3,0,0.5,0.1,0.7c0.1,0.2,0.2,0.4,0.5,0.5
			c0.2,0.1,0.4,0.1,0.6,0.1c0.2,0,0.5,0,0.7,0.1c0.2,0,0.4,0,0.7,0c0.2,0,0.4,0,0.6,0c0.1,0,0.2,0,0.3,0c0.1,0,0.2,0,0.3,0
			c0.2,0,0.5,0,0.7,0c0.2,0,0.5,0,0.7-0.1c0.4-0.1,0.7-0.2,0.9-0.3c0.2-0.2,0.3-0.5,0.3-0.9c0-0.6-0.1-0.9-0.4-1
			C8.5,39.1,8.1,39,7.6,39l-1.7,0c-0.1,0-0.1,0-0.2,0c-0.1,0-0.1,0-0.2,0c-0.3,0-0.5,0-0.8,0c-0.3,0-0.5,0-0.8,0
			c-0.6,0-1.1-0.2-1.5-0.4c-0.4-0.2-0.6-0.7-0.6-1.3c0-0.4,0.1-0.8,0.2-1.2c0.2-0.4,0.4-0.6,0.9-0.8c0.2-0.1,0.4-0.1,0.7-0.2
			C3.9,35,4.2,35,4.5,35c0.3,0,0.5,0,0.8,0c0.2,0,0.5,0,0.7,0c0.2,0,0.3,0,0.5,0c0.2,0,0.4,0,0.5,0c0.2,0,0.4,0,0.5,0
			c0.2,0,0.4,0,0.5,0.1c0.6,0.1,1.1,0.3,1.4,0.6C9.8,35.9,9.9,36.4,9.9,37L9.9,37z"/>
		<path class="st1" d="M14.7,38.7c0-0.1,0-0.2,0-0.4c0-0.1,0-0.2,0-0.4c0-0.2,0-0.5,0-0.7c0-0.2,0.1-0.5,0.1-0.7
			c0.1-0.6,0.4-1.1,0.9-1.3c0.4-0.2,1-0.3,1.5-0.3c0.3,0,0.5,0,0.8,0c0.3,0,0.5,0,0.8,0c0.3,0,0.5,0,0.8,0c0.3,0,0.5,0,0.8,0
			c1.5,0,2.5,0.2,2.9,0.6c0.4,0.4,0.6,1.3,0.6,2.8c0,0.3,0,0.7,0,1c0,0.3,0,0.7-0.1,1c-0.1,0.7-0.3,1.2-0.6,1.5
			c-0.4,0.3-0.9,0.5-1.6,0.5c-0.3,0-0.6,0-0.9,0c-0.3,0-0.6,0-0.9,0h-1.6c-0.3,0-0.5,0-0.8,0c-0.3,0-0.5,0-0.8-0.1c0,0-0.1,0-0.1,0
			c0,0-0.1,0-0.1,0c-0.3,0-0.5-0.1-0.8-0.2c-0.3-0.1-0.5-0.3-0.6-0.5c-0.1-0.2-0.2-0.4-0.3-0.7c-0.1-0.3-0.1-0.5-0.1-0.8
			c0-0.2,0-0.4,0-0.7C14.7,39.1,14.7,38.9,14.7,38.7L14.7,38.7z M15.6,39.2c0,0.8,0.1,1.4,0.2,1.8c0.2,0.4,0.7,0.6,1.6,0.6l1.9,0H20
			c0.1,0,0.3,0,0.4,0c0.2,0,0.3,0,0.5,0c0.1,0,0.3,0,0.4,0c0.2,0,0.3,0,0.4,0c0.6-0.1,0.9-0.3,1.1-0.6c0.1-0.3,0.2-0.8,0.2-1.3
			c0-0.1,0-0.2,0-0.4c0-0.1,0-0.3,0-0.4c0-0.1,0-0.2,0-0.4c0-0.1,0-0.2,0-0.4c0-0.1,0-0.2,0-0.4c0-0.1,0-0.3,0-0.4
			c0-0.2,0-0.5-0.1-0.7c0-0.2-0.1-0.4-0.2-0.5c-0.1-0.1-0.1-0.1-0.2-0.2c-0.1-0.1-0.2-0.1-0.3-0.1c0,0,0,0,0,0c0,0,0,0,0,0
			c-0.1,0-0.2-0.1-0.4-0.1c-0.1,0-0.3,0-0.4,0c-0.1,0-0.1,0-0.2,0c-0.1,0-0.2,0-0.2,0l-1.7,0l-1.7,0c-0.8,0-1.3,0.1-1.6,0.3
			c-0.3,0.2-0.4,0.7-0.4,1.5l0,1.1V39.2z"/>
		<path class="st1" d="M29.8,38.2h5.8v0.7h-5.8v3.4h-0.9V35h7v0.7h-6.1V38.2z"/>
		<path class="st1" d="M43.9,42.3H43v-6.5h-3.7V35h8.2v0.7h-3.7V42.3z"/>
		<path class="st1" d="M65.5,35h1L63,42.3h-1.2l-2.9-6.4L56,42.3h-1.2L51.3,35h1l3.1,6.5l2.9-6.5h1.2l2.9,6.5L65.5,35z"/>
		<path class="st1" d="M70.4,40.7l-0.9,1.6h-1l4.3-7.3h1.2l4.3,7.3h-1l-1-1.6H70.4z M73.3,35.7l-2.5,4.3h5.1L73.3,35.7z"/>
		<path class="st1" d="M88,35c0.8,0,1.4,0.2,1.8,0.4c0.4,0.3,0.6,0.9,0.6,1.8c0,0.6-0.1,1.1-0.3,1.3C90,38.8,89.6,39,88.9,39
			c0.4,0.1,0.8,0.2,1,0.3c0.3,0.2,0.4,0.5,0.4,1v2h-0.9v-1.6c0-0.6-0.1-0.9-0.4-1.1c-0.2-0.2-0.6-0.2-1.2-0.2h-5v2.9h-0.9V35H88z
			 M87.9,38.6c0.6,0,1.1-0.1,1.3-0.3c0.3-0.2,0.4-0.6,0.4-1.2c0-0.6-0.2-1-0.4-1.1c-0.3-0.1-0.7-0.2-1.3-0.2H83v2.9H87.9z"/>
		<path class="st1" d="M96.2,38.2h6.1v0.7h-6.1v2.7h6.4v0.7h-7.3V35h7.2v0.7h-6.3V38.2z"/>
		<path class="st1" d="M121.5,37h-0.9c0,0,0-0.1,0-0.2c0-0.1,0-0.1,0-0.2c0-0.1-0.1-0.3-0.1-0.4c-0.1-0.1-0.2-0.2-0.3-0.3
			c-0.1-0.1-0.3-0.1-0.6-0.2c-0.3,0-0.5-0.1-0.8-0.1c-0.2,0-0.4,0-0.5,0c-0.2,0-0.3,0-0.5,0h-0.3c-0.2,0-0.4,0-0.6,0
			c-0.2,0-0.5,0-0.7,0c-0.3,0-0.5,0-0.8,0.1c-0.2,0-0.5,0.1-0.6,0.2c-0.2,0.1-0.3,0.2-0.4,0.4c-0.1,0.2-0.1,0.3-0.1,0.5
			c0,0,0,0,0,0.1c0,0,0,0,0,0.1c0,0.5,0.1,0.8,0.4,0.9c0.3,0.1,0.6,0.2,1,0.2c0.1,0,0.1,0,0.2,0c0.1,0,0.1,0,0.2,0
			c0.1,0,0.1,0,0.2,0c0.1,0,0.1,0,0.2,0c0.1,0,0.3,0,0.4,0c0.1,0,0.3,0,0.4,0c0.1,0,0.3,0,0.4,0c0.1,0,0.3,0,0.4,0
			c0.1,0,0.2,0,0.4,0c0.1,0,0.3,0,0.4,0c0.1,0,0.2,0,0.4,0c0.1,0,0.3,0,0.4,0c0.7,0.1,1.2,0.2,1.5,0.5c0.3,0.3,0.4,0.8,0.4,1.5
			c0,0.4-0.1,0.8-0.2,1.1c-0.1,0.3-0.4,0.6-0.8,0.7c-0.2,0.1-0.5,0.2-0.8,0.2c-0.3,0-0.6,0.1-0.9,0.1c-0.2,0-0.3,0-0.5,0
			c-0.2,0-0.3,0-0.5,0h-0.6c-0.2,0-0.4,0-0.6,0c-0.2,0-0.4,0-0.6,0c-0.2,0-0.4,0-0.6,0c-0.2,0-0.4,0-0.6,0c-0.8-0.1-1.3-0.3-1.5-0.6
			c-0.2-0.3-0.3-0.8-0.3-1.6l0.9,0v0.2c0,0,0,0,0,0c0,0,0,0,0,0c0,0.3,0,0.5,0.1,0.7c0.1,0.2,0.2,0.4,0.6,0.5
			c0.2,0.1,0.4,0.1,0.6,0.1c0.2,0,0.5,0,0.7,0.1c0.2,0,0.4,0,0.7,0c0.2,0,0.4,0,0.6,0c0.1,0,0.2,0,0.3,0c0.1,0,0.2,0,0.3,0
			c0.2,0,0.5,0,0.7,0c0.2,0,0.5,0,0.7-0.1c0.4-0.1,0.7-0.2,0.9-0.3c0.2-0.2,0.3-0.5,0.3-0.9c0-0.6-0.1-0.9-0.4-1
			c-0.3-0.1-0.7-0.2-1.2-0.2l-1.7,0c-0.1,0-0.1,0-0.2,0c-0.1,0-0.1,0-0.2,0c-0.3,0-0.5,0-0.8,0c-0.3,0-0.5,0-0.8,0
			c-0.6,0-1.1-0.2-1.5-0.4c-0.4-0.2-0.6-0.7-0.6-1.3c0-0.4,0.1-0.8,0.2-1.2c0.2-0.4,0.5-0.6,0.9-0.8c0.2-0.1,0.4-0.1,0.7-0.2
			c0.3,0,0.6-0.1,0.9-0.1c0.3,0,0.5,0,0.8,0c0.3,0,0.5,0,0.7,0c0.2,0,0.4,0,0.5,0c0.2,0,0.4,0,0.5,0c0.2,0,0.4,0,0.5,0
			c0.2,0,0.4,0,0.5,0.1c0.6,0.1,1.1,0.3,1.4,0.6C121.3,35.9,121.5,36.4,121.5,37L121.5,37z"/>
		<path class="st1" d="M126.2,38.7c0-0.1,0-0.2,0-0.4c0-0.1,0-0.2,0-0.4c0-0.2,0-0.5,0-0.7c0-0.2,0.1-0.5,0.1-0.7
			c0.1-0.6,0.4-1.1,0.9-1.3c0.4-0.2,1-0.3,1.5-0.3c0.3,0,0.5,0,0.8,0c0.3,0,0.5,0,0.8,0c0.3,0,0.5,0,0.8,0c0.3,0,0.5,0,0.8,0
			c1.5,0,2.5,0.2,2.9,0.6c0.4,0.4,0.6,1.3,0.6,2.8c0,0.3,0,0.7,0,1c0,0.3,0,0.7-0.1,1c-0.1,0.7-0.3,1.2-0.6,1.5
			c-0.4,0.3-0.9,0.5-1.6,0.5c-0.3,0-0.6,0-0.9,0c-0.3,0-0.6,0-0.9,0h-1.6c-0.3,0-0.5,0-0.8,0c-0.3,0-0.5,0-0.8-0.1c0,0-0.1,0-0.1,0
			c0,0-0.1,0-0.1,0c-0.3,0-0.5-0.1-0.8-0.2c-0.3-0.1-0.5-0.3-0.6-0.5c-0.1-0.2-0.2-0.4-0.3-0.7c-0.1-0.3-0.1-0.5-0.1-0.8
			c0-0.2,0-0.4,0-0.7C126.2,39.1,126.2,38.9,126.2,38.7L126.2,38.7z M127.1,39.2c0,0.8,0.1,1.4,0.3,1.8c0.2,0.4,0.7,0.6,1.6,0.6
			l1.9,0h0.7c0.1,0,0.3,0,0.4,0c0.2,0,0.3,0,0.5,0c0.1,0,0.3,0,0.4,0c0.2,0,0.3,0,0.4,0c0.6-0.1,0.9-0.3,1.1-0.6
			c0.1-0.3,0.2-0.8,0.2-1.3c0-0.1,0-0.2,0-0.4c0-0.1,0-0.3,0-0.4c0-0.1,0-0.2,0-0.4c0-0.1,0-0.2,0-0.4c0-0.1,0-0.2,0-0.4
			c0-0.1,0-0.3,0-0.4c0-0.2,0-0.5-0.1-0.7c0-0.2-0.1-0.4-0.2-0.5c-0.1-0.1-0.1-0.1-0.2-0.2c-0.1-0.1-0.2-0.1-0.3-0.1c0,0,0,0,0,0
			c0,0,0,0,0,0c-0.1,0-0.2-0.1-0.4-0.1c-0.1,0-0.3,0-0.4,0c-0.1,0-0.2,0-0.2,0c-0.1,0-0.2,0-0.2,0l-1.7,0l-1.7,0
			c-0.8,0-1.3,0.1-1.6,0.3c-0.3,0.2-0.4,0.7-0.4,1.5l0,1.1V39.2z"/>
		<path class="st1" d="M147.1,41.6v0.7h-6.6V35h0.9v6.6H147.1z"/>
		<path class="st1" d="M160,35v5c0,1.1-0.2,1.8-0.7,2c-0.5,0.2-1.2,0.3-2.2,0.3c0,0,0,0,0,0c0,0,0,0,0,0c-0.2,0-0.5,0-0.7,0
			c-0.2,0-0.5,0-0.7,0c-0.3,0-0.7,0-1,0c-0.3,0-0.7,0-1,0c-0.7,0-1.2-0.2-1.6-0.5c-0.3-0.3-0.5-0.8-0.5-1.5V35h0.9v5.2
			c0,0.6,0.2,1,0.4,1.2c0.3,0.1,0.7,0.2,1.3,0.2l1.6,0l1.7,0c0.6,0,1.1-0.1,1.4-0.2c0.3-0.1,0.5-0.5,0.5-1.2V40v-5H160z"/>
		<path class="st1" d="M168.5,42.3h-0.9v-6.5h-3.7V35l8.2,0v0.7l-3.7,0V42.3z"/>
		<path class="st1" d="M177.1,35v7.3h-0.9V35H177.1z"/>
		<path class="st1" d="M181.9,38.7c0-0.1,0-0.2,0-0.4c0-0.1,0-0.2,0-0.4c0-0.2,0-0.5,0-0.7c0-0.2,0.1-0.5,0.1-0.7
			c0.1-0.6,0.4-1.1,0.9-1.3c0.4-0.2,1-0.3,1.5-0.3c0.3,0,0.5,0,0.8,0c0.3,0,0.5,0,0.8,0c0.3,0,0.5,0,0.8,0c0.3,0,0.5,0,0.8,0
			c1.5,0,2.5,0.2,2.9,0.6c0.4,0.4,0.6,1.3,0.6,2.8c0,0.3,0,0.7,0,1c0,0.3,0,0.7-0.1,1c-0.1,0.7-0.3,1.2-0.6,1.5
			c-0.4,0.3-0.9,0.5-1.6,0.5c-0.3,0-0.6,0-0.9,0c-0.3,0-0.6,0-0.9,0h-1.6c-0.3,0-0.5,0-0.8,0c-0.3,0-0.5,0-0.8-0.1c0,0-0.1,0-0.1,0
			c0,0-0.1,0-0.1,0c-0.3,0-0.5-0.1-0.8-0.2c-0.3-0.1-0.5-0.3-0.6-0.5c-0.1-0.2-0.2-0.4-0.3-0.7c-0.1-0.3-0.1-0.5-0.1-0.8
			c0-0.2,0-0.4,0-0.7C181.9,39.1,181.9,38.9,181.9,38.7L181.9,38.7z M182.9,39.2c0,0.8,0.1,1.4,0.3,1.8c0.2,0.4,0.7,0.6,1.6,0.6
			l1.9,0h0.7c0.1,0,0.3,0,0.4,0c0.2,0,0.3,0,0.5,0c0.2,0,0.3,0,0.4,0c0.2,0,0.3,0,0.4,0c0.6-0.1,0.9-0.3,1.1-0.6
			c0.1-0.3,0.2-0.8,0.2-1.3c0-0.1,0-0.2,0-0.4c0-0.1,0-0.3,0-0.4c0-0.1,0-0.2,0-0.4c0-0.1,0-0.2,0-0.4c0-0.1,0-0.2,0-0.4
			c0-0.1,0-0.3,0-0.4c0-0.2,0-0.5-0.1-0.7c0-0.2-0.1-0.4-0.2-0.5c0-0.1-0.1-0.1-0.2-0.2c-0.1-0.1-0.2-0.1-0.3-0.1c0,0,0,0,0,0
			c0,0,0,0,0,0c-0.1,0-0.2-0.1-0.4-0.1c-0.1,0-0.3,0-0.4,0c-0.1,0-0.1,0-0.2,0c-0.1,0-0.2,0-0.2,0l-1.7,0l-1.7,0
			c-0.8,0-1.3,0.1-1.6,0.3c-0.3,0.2-0.4,0.7-0.4,1.5l0,1.1V39.2z"/>
		<path class="st1" d="M197.1,42.3h-0.9V35h1.5l6.7,6.6V35h0.9v7.3h-1.5l-6.7-6.6V42.3z"/>
		<path class="st1" d="M218.3,37h-0.9c0,0,0-0.1,0-0.2c0-0.1,0-0.1,0-0.2c0-0.1-0.1-0.3-0.1-0.4c-0.1-0.1-0.2-0.2-0.3-0.3
			c-0.1-0.1-0.3-0.1-0.6-0.2c-0.3,0-0.5-0.1-0.8-0.1c-0.2,0-0.4,0-0.5,0c-0.2,0-0.3,0-0.5,0h-0.3c-0.2,0-0.4,0-0.6,0
			c-0.2,0-0.5,0-0.7,0c-0.3,0-0.5,0-0.8,0.1c-0.2,0-0.5,0.1-0.6,0.2c-0.2,0.1-0.3,0.2-0.4,0.4c-0.1,0.2-0.1,0.3-0.1,0.5
			c0,0,0,0,0,0.1c0,0,0,0,0,0.1c0,0.5,0.1,0.8,0.4,0.9c0.3,0.1,0.6,0.2,1,0.2c0.1,0,0.1,0,0.2,0c0.1,0,0.1,0,0.2,0
			c0.1,0,0.1,0,0.2,0c0.1,0,0.1,0,0.2,0c0.1,0,0.3,0,0.4,0c0.1,0,0.3,0,0.4,0c0.1,0,0.3,0,0.4,0c0.1,0,0.3,0,0.4,0
			c0.1,0,0.2,0,0.4,0c0.1,0,0.3,0,0.4,0c0.1,0,0.3,0,0.4,0c0.1,0,0.3,0,0.4,0c0.7,0.1,1.2,0.2,1.5,0.5c0.3,0.3,0.4,0.8,0.4,1.5
			c0,0.4-0.1,0.8-0.2,1.1c-0.1,0.3-0.4,0.6-0.8,0.7c-0.2,0.1-0.5,0.2-0.8,0.2c-0.3,0-0.6,0.1-0.9,0.1c-0.2,0-0.3,0-0.5,0
			c-0.2,0-0.3,0-0.5,0h-0.6c-0.2,0-0.4,0-0.6,0c-0.2,0-0.4,0-0.5,0c-0.2,0-0.4,0-0.6,0c-0.2,0-0.4,0-0.5,0c-0.8-0.1-1.3-0.3-1.5-0.6
			c-0.2-0.3-0.3-0.8-0.3-1.6l0.9,0v0.2c0,0,0,0,0,0c0,0,0,0,0,0c0,0.3,0,0.5,0.1,0.7c0.1,0.2,0.2,0.4,0.6,0.5
			c0.2,0.1,0.4,0.1,0.6,0.1c0.2,0,0.5,0,0.7,0.1c0.2,0,0.4,0,0.7,0c0.2,0,0.4,0,0.6,0c0.1,0,0.2,0,0.3,0c0.1,0,0.2,0,0.3,0
			c0.2,0,0.5,0,0.7,0c0.2,0,0.5,0,0.7-0.1c0.4-0.1,0.7-0.2,0.9-0.3c0.2-0.2,0.3-0.5,0.3-0.9c0-0.6-0.1-0.9-0.4-1
			c-0.3-0.1-0.7-0.2-1.2-0.2l-1.7,0c-0.1,0-0.1,0-0.2,0c-0.1,0-0.1,0-0.2,0c-0.3,0-0.5,0-0.8,0c-0.3,0-0.5,0-0.8,0
			c-0.6,0-1.1-0.2-1.5-0.4c-0.4-0.2-0.6-0.7-0.6-1.3c0-0.4,0.1-0.8,0.2-1.2c0.1-0.4,0.4-0.6,0.9-0.8c0.2-0.1,0.4-0.1,0.7-0.2
			c0.3,0,0.6-0.1,0.9-0.1c0.3,0,0.5,0,0.8,0c0.2,0,0.5,0,0.7,0c0.2,0,0.4,0,0.5,0c0.2,0,0.4,0,0.5,0c0.2,0,0.3,0,0.5,0
			c0.2,0,0.4,0,0.5,0.1c0.6,0.1,1.1,0.3,1.4,0.6C218.2,35.9,218.3,36.4,218.3,37L218.3,37z"/>
	</g>
</g>
</svg>
